<svg id="Layer_1" data-name="Layer 1" xmlns="http://www.w3.org/2000/svg" viewBox="0 0 383.58 384"><defs><style>.cls-1{fill:#a35900;}.cls-2{fill:#f9f9f9;}.cls-3{fill:#f8f8f8;}.cls-4{fill:#f4f4f4;}</style></defs><title>ui design icon</title><path class="cls-1" d="M380.69,25.28a26.5,26.5,0,0,0-.42-5.42C378,9.37,370,3.47,358,3.46H89.29c-7.4,0-14.8-.11-22.19,0C54,3.71,45.79,12.11,45.75,25.08c0,9-.07,17.91,0,26.87,0,2.17-.54,2.89-2.78,2.82-5.32-.16-10.64-.09-16,0-13.37.11-21.77,8.58-21.79,22q0,31.35,0,62.69,0,94.43,0,188.86c0,6.3,1.84,11.7,6.41,16.09S21.86,350,28.07,350c42.83-.08,85.67,0,128.5-.11,2.94,0,4,.57,3.92,3.77-.26,7.91-.11,15.83-.08,23.75,0,5.34,1.65,7,7,7.05q46,0,91.9,0c5.07,0,6.74-1.75,6.76-6.85,0-8,.17-16.1-.06-24.14-.09-3.05.91-3.59,3.72-3.57,16.62.13,33.23.19,49.84,0,12.31-.12,20.62-8.72,20.68-21,.05-9.08.1-18.17-.05-27.25,0-2.47.72-3.07,3.07-3,5.32.17,10.64.13,16,0,13.29-.23,21.52-8.57,21.52-21.82Q380.72,151.06,380.69,25.28ZM56,23.53c0-5.36,3.93-9.21,9.25-9.72,1.54-.15,3.11-.12,4.66-.12h287.4c10,0,13.31,3.31,13.31,13.26,0,12.72-.09,25.44.07,38.16,0,2.8-.81,3.37-3.47,3.36q-93.07-.1-186.15,0A6.72,6.72,0,0,1,175.67,66c-6.32-6.71-12.82-13.24-19.13-20A12.27,12.27,0,0,0,146.92,42c-15.58.11-31.16,0-46.73,0C93,42,89.49,45.62,89.44,52.8c0,4.41-.09,8.83,0,13.24,0,1.88-.59,2.42-2.44,2.4q-14.41-.12-28.82,0c-2,0-2.37-.68-2.36-2.48C55.92,51.82,55.81,37.67,56,23.53ZM160.41,324.31c0,3.77-.23,7.55.06,11.29.25,3.27-.52,4.32-4.11,4.3-29.59-.18-59.18-.1-88.78-.1-13.37,0-26.74,0-40.11,0-8.35,0-12.08-3.75-12.08-12.1q0-62.68,0-125.38V77.71c0-9.14,3.6-12.78,12.66-12.8,4.8,0,9.61.18,14.4-.07,2.86-.15,3.39.91,3.35,3.52-.14,10.51-.06,21-.06,31.54v176c0,14.73,8.08,22.84,22.86,22.85,34.4,0,68.79.1,103.19-.1,4,0,5.69,1.32,6.28,4.89.09.51.18,1,.28,1.53,1.23,6.37,1.23,6.37-5.23,6.4C164.22,311.5,160.43,315.33,160.41,324.31Zm47.76-104.7c0,1.95-1.3,2.27-2.5,3-6.59,3.78-9.58,10.74-7.7,17.85a15.27,15.27,0,0,0,15,11.81,15.81,15.81,0,0,0,15.39-11.43,15.36,15.36,0,0,0-7.65-18.16,4,4,0,0,1-2.46-4.2c.14-6.87.07-13.74.1-20.62,0-.21.19-.43.32-.71,1.25.21,1.33,1.4,1.78,2.2q20.63,37.16,41.25,74.32c1.17,2.1,1.39,2.88-1.35,3.83a33.6,33.6,0,0,0-22.86,31.17c-.09,2.56-.92,2.9-3.14,2.88-14.14-.09-28.28,0-42.42-.06-1.3,0-2.81.57-2.9-1.86-.61-17.07-9.75-27.75-25.61-33.65L207.22,197l.9.17C208.12,204.66,208.06,212.14,208.17,219.61Zm4.86,11a5.61,5.61,0,0,1,5.77,5.54,5.72,5.72,0,0,1-5.49,5.88,5.23,5.23,0,0,1-5.69-5.49A5.69,5.69,0,0,1,213,230.63Zm39.51,143.62c-13.09-.08-26.19,0-39.28,0s-26.19-.08-39.29,0c-2.68,0-3.51-.68-3.46-3.44q.39-23.15.4-46.28c0-2.29.46-3.07,3-3.07q39.48.16,78.95,0c2.29,0,3.14.46,3.12,3q-.18,23.34,0,46.67C256,374,254.86,374.27,252.54,374.25Zm77.52-45.56c-.05,7-4,11-11.17,11-16.61,0-33.23,0-49.84.07-2.29,0-3.21-.4-3.08-2.94.23-4.53.11-9.08,0-13.62-.1-7.74-4.1-11.72-11.77-11.82s-7.67-.24-5.94-7.8c.83-3.67,2.44-5.2,6.55-5.08,11.81.34,23.62.12,35.44.12,12.2,0,24.4.07,36.6-.06,2.52,0,3.29.62,3.24,3.22C330,310.77,330.12,319.73,330.06,328.69Zm40.51-53c0,9.2-3.54,12.81-12.6,12.81q-46.34,0-92.67,0c-1.12,0-2.23-.1-3.51-.15.62-1.35,1.74-1.39,2.64-1.7,8.75-3,11.1-9.12,6.57-17.29q-22.77-41.1-45.59-82.18c-1.64-2.94-3.25-5.9-4.93-8.81-3.75-6.47-10.82-6.64-14.42-.18q-25.74,46.13-51.29,92.34c-3.73,6.73-1,13.33,6.2,15.87l3.91,1.39c-1.4,1-2.56.7-3.6.7q-46.53,0-93.06,0c-8.68,0-12.33-3.66-12.33-12.27q0-97-.1-193.91c0-3.39,1-4,4.08-3.9,9.6.21,19.21.11,28.82.07,7.2,0,10.8-3.61,10.84-10.71,0-4.28.11-8.57,0-12.85-.07-2.11.44-2.87,2.73-2.85q21.81.15,43.61,0a5.43,5.43,0,0,1,4.32,2c6.26,6.59,12.69,13,18.83,19.7a14.29,14.29,0,0,0,11.33,4.8c62-.09,124.08,0,186.12-.14,3.32,0,4.24.65,4.23,4.14Q370.46,179.16,370.57,275.72Z"/><path class="cls-1" d="M327.54,117.17a19.41,19.41,0,0,0-21.05,13c-.87,2.57-2,3.23-4.57,3.21-20.24-.12-40.49-.06-60.73-.06-6.67,0-6.67,0-6.77-6.61-.1-7.3-3.73-11.07-11-11.17q-10.3-.15-20.63,0c-7.07.11-10.7,3.83-10.87,10.88a26.56,26.56,0,0,0,0,3.89c.31,2.41-.61,3.07-3,3.06q-32.52-.13-65,0c-2.11,0-3-.48-3.74-2.68a19.54,19.54,0,0,0-21.08-13.58c-10,1.35-17,8.52-17.71,18.15a20,20,0,0,0,38,10.37c.62-1.24,1-2.17,2.73-2.16,15.25.06,30.51,0,45.76,0,0,.39,0,.58,0,.61-.74.5-1.47,1-2.25,1.45-23.69,13.23-39.86,32.66-48.22,58.51-2,6.35-2,6.36-8.88,6.66-7,.31-10.59,4-10.63,11.1,0,6.88-.05,13.75,0,20.63s3.8,10.73,10.87,10.79q10.32.1,20.63,0c7.29-.06,10.91-3.68,11-11.09q.15-10.12,0-20.25c-.1-7.38-3.6-11.05-11-11.09-3,0-3.36-.79-2.52-3.42A91,91,0,0,1,151,168.57a88.51,88.51,0,0,1,40.73-22.32c1.28,8.44,4.09,11.72,10.37,11.83q11.3.19,22.58,0c5.37-.09,9.18-3.4,9.7-8.71.3-3.05,1.24-3.12,3.81-2.31,30.78,9.64,51.2,29.76,61.55,60.27.9,2.67.68,3.47-2.41,3.51-6.35.09-10.21,3.34-10.46,9.16-.35,8-.34,16.1,0,24.12.24,5.58,4.15,9,9.71,9.11,7.65.13,15.31.14,23,0,5.63-.11,9.57-4,9.68-9.57q.23-11.68,0-23.36A9.33,9.33,0,0,0,320.6,211a24.11,24.11,0,0,0-5.43-.16c-3,.35-4.15-.71-5-3.69-7.91-27.35-24.43-47.92-49.35-61.72-.66-.36-1.91-.33-1.79-1.87,14.78,0,29.53.07,44.28-.06,2.42,0,3.55.74,4.67,2.88,4.51,8.62,14.12,12.44,23.5,9.62a19.44,19.44,0,0,0,14-20.38C344.79,125.74,337.8,118.59,327.54,117.17Zm-226.2,29.5a9.74,9.74,0,0,1-9.92-9.78,9.85,9.85,0,1,1,19.69,0C111.12,142.68,107.17,146.63,101.34,146.67Zm26.6,74.24c1.74,0,2.18.61,2.19,2.25,0,5.83.12,11.67.39,17.5.09,2.22-.84,2.6-2.73,2.53-3-.11-6,0-8.94,0-3.57-.17-8.31,1.94-10.39-.43-1.79-2-.65-6.67-.76-10.16-.09-3.12-.07-6.23-.22-9.34-.08-1.65.46-2.32,2.17-2.3C115.75,221,121.84,221,127.94,220.91Zm94.52-72.82c-3.1-.13-6.2,0-9.31,0v.13c-1.81,0-3.62,0-5.43,0-5.57.07-5.56.07-5.66-5.31-.08-4.78-.13-9.56-.31-14.34-.07-1.83.17-2.89,2.42-2.85,6,.12,11.9.11,17.85,0,1.95,0,2.37.78,2.39,2.52.05,5.81.17,11.62.41,17.43C224.9,147.52,224.34,148.17,222.46,148.09Zm94.1,72.82c2.09,0,2.67.7,2.58,2.68-.14,2.84,0,5.69,0,8.53h.14c0,2.84-.08,5.69,0,8.53.06,1.68-.16,2.57-2.22,2.56-5.95,0-11.9.1-17.84.34-2.13.09-2.62-.71-2.61-2.66.06-5.82,0-11.64-.15-17.46-.07-2.14.71-2.56,2.65-2.52C304.92,221,310.74,221,316.56,220.91Zm8.73-74.24a9.85,9.85,0,1,1-.06-19.7A9.71,9.71,0,0,1,335,136.9C335,142.85,331.21,146.65,325.29,146.67Z"/><path class="cls-1" d="M309.91,55.27a14.34,14.34,0,1,0-14.2-14.36A14.21,14.21,0,0,0,309.91,55.27Zm-.06-18.37A3.81,3.81,0,0,1,314,41a3.8,3.8,0,0,1-3.81,4.1,3.94,3.94,0,0,1-4.39-3.43C305.86,38.54,307.35,37,309.85,36.9Z"/><path class="cls-1" d="M275.37,55.27a14.34,14.34,0,0,0-.07-28.68,14.34,14.34,0,1,0,.07,28.68Zm.08-18.47c2.33.44,4.05,1.63,4,4.27a3.84,3.84,0,0,1-4.16,4.06A3.8,3.8,0,0,1,271.21,41C271.23,38.45,272.87,37.08,275.45,36.8Z"/><path class="cls-1" d="M344.34,55.27a14.34,14.34,0,1,0-14.18-14.51A14.41,14.41,0,0,0,344.34,55.27Zm.15-18.4A3.88,3.88,0,0,1,348.66,41c0,2.57-1.7,3.83-3.86,4.26-2.82-.27-4.4-1.69-4.43-4.2A3.87,3.87,0,0,1,344.49,36.87Z"/><path class="cls-2" d="M310.23,45.12A3.8,3.8,0,0,0,314,41a3.81,3.81,0,0,0-4.19-4.12c-2.5.07-4,1.64-4,4.79A3.94,3.94,0,0,0,310.23,45.12Z"/><path class="cls-3" d="M275.26,45.13a3.84,3.84,0,0,0,4.16-4.06c.08-2.64-1.64-3.83-4-4.27-2.58.28-4.22,1.65-4.24,4.17A3.8,3.8,0,0,0,275.26,45.13Z"/><path class="cls-4" d="M344.8,45.24c2.16-.43,3.88-1.69,3.86-4.26a4.15,4.15,0,0,0-8.29.06C340.4,43.55,342,45,344.8,45.24Z"/></svg>